<svg xmlns="http://www.w3.org/2000/svg" viewBox="0 0 24 24"><path fill="black" fill-rule="evenodd" d="M 22.935 7.468 c -0.063 -1.36 -0.307 -2.142 -0.512 -2.67 a 5.341 5.341 0 0 0 -1.27 -1.95 a 5.345 5.345 0 0 0 -1.95 -1.27 c -0.53 -0.206 -1.311 -0.45 -2.672 -0.513 C 15.333 1.012 14.976 1 12 1 s -3.333 0.012 -4.532 0.065 c -1.36 0.063 -2.142 0.307 -2.67 0.512 c -0.77 0.298 -1.371 0.69 -1.95 1.27 a 5.36 5.36 0 0 0 -1.27 1.95 c -0.206 0.53 -0.45 1.311 -0.513 2.672 C 1.012 8.667 1 9.024 1 12 s 0.012 3.333 0.065 4.532 c 0.063 1.36 0.307 2.142 0.512 2.67 c 0.297 0.77 0.69 1.372 1.27 1.95 c 0.58 0.581 1.181 0.974 1.95 1.27 c 0.53 0.206 1.311 0.45 2.672 0.513 C 8.667 22.988 9.024 23 12 23 s 3.333 -0.012 4.532 -0.065 c 1.36 -0.063 2.142 -0.307 2.67 -0.512 a 5.33 5.33 0 0 0 1.95 -1.27 a 5.356 5.356 0 0 0 1.27 -1.95 c 0.206 -0.53 0.45 -1.311 0.513 -2.672 c 0.053 -1.198 0.065 -1.555 0.065 -4.531 s -0.012 -3.333 -0.065 -4.532 Z m -1.998 8.972 c -0.05 1.07 -0.228 1.652 -0.38 2.04 c -0.197 0.51 -0.434 0.874 -0.82 1.258 a 3.362 3.362 0 0 1 -1.258 0.82 c -0.387 0.151 -0.97 0.33 -2.038 0.379 c -1.162 0.052 -1.51 0.063 -4.441 0.063 s -3.28 -0.01 -4.44 -0.063 c -1.07 -0.05 -1.652 -0.228 -2.04 -0.38 a 3.354 3.354 0 0 1 -1.258 -0.82 a 3.362 3.362 0 0 1 -0.82 -1.258 c -0.151 -0.387 -0.33 -0.97 -0.379 -2.038 C 3.011 15.28 3 14.931 3 12 s 0.01 -3.28 0.063 -4.44 c 0.05 -1.07 0.228 -1.652 0.38 -2.04 c 0.197 -0.51 0.434 -0.875 0.82 -1.26 a 3.372 3.372 0 0 1 1.258 -0.819 c 0.387 -0.15 0.97 -0.329 2.038 -0.378 C 8.72 3.011 9.069 3 12 3 s 3.28 0.01 4.44 0.063 c 1.07 0.05 1.652 0.228 2.04 0.38 c 0.51 0.197 0.874 0.433 1.258 0.82 c 0.385 0.382 0.622 0.747 0.82 1.258 c 0.151 0.387 0.33 0.97 0.379 2.038 C 20.989 8.72 21 9.069 21 12 s -0.01 3.28 -0.063 4.44 Z m -4.584 -6.828 l -5.25 -3 a 2.725 2.725 0 0 0 -2.745 0.01 A 2.722 2.722 0 0 0 6.988 9 v 6 c 0 0.992 0.512 1.88 1.37 2.379 c 0.432 0.25 0.906 0.376 1.38 0.376 c 0.468 0 0.937 -0.123 1.365 -0.367 l 5.25 -3 c 0.868 -0.496 1.385 -1.389 1.385 -2.388 s -0.517 -1.892 -1.385 -2.388 Z m -0.993 3.04 l -5.25 3 a 0.74 0.74 0 0 1 -0.748 -0.003 a 0.74 0.74 0 0 1 -0.374 -0.649 V 9 a 0.74 0.74 0 0 1 0.374 -0.65 a 0.737 0.737 0 0 1 0.748 -0.002 l 5.25 3 c 0.341 0.196 0.378 0.521 0.378 0.652 s -0.037 0.456 -0.378 0.651 Z"/></svg>
